<?xml version="1.0" encoding="utf-8"?>
<!-- Generator: Adobe Illustrator 15.0.2, SVG Export Plug-In . SVG Version: 6.00 Build 0)  -->
<!DOCTYPE svg PUBLIC "-//W3C//DTD SVG 1.1//EN" "http://www.w3.org/Graphics/SVG/1.1/DTD/svg11.dtd">
<svg version="1.1" id="Layer_1" xmlns="http://www.w3.org/2000/svg" xmlns:xlink="http://www.w3.org/1999/xlink" x="0px" y="0px"
	 width="43.717px" height="67.211px" viewBox="0 0 43.717 67.211" enable-background="new 0 0 43.717 67.211" xml:space="preserve">
<path opacity="0.92" fill="#FFFFFF" d="M-175.581,41.771h28.306v6.533h-28.306V41.771z M-196.757,47.973l21.398-21.406
	l-21.398-21.398l-7.133,7.141l14.266,14.258l-14.266,14.271L-196.757,47.973z"/>
<path opacity="0.92" fill="#FFFFFF" d="M388.921,55.273c-13.938,0-25.272-11.332-25.272-25.269
	c0-13.935,11.334-25.278,25.272-25.278s25.276,11.344,25.276,25.278C414.197,43.941,402.859,55.273,388.921,55.273z M388.921,10.344
	c-10.833,0-19.658,8.819-19.658,19.661c0,10.834,8.825,19.655,19.658,19.655c10.837,0,19.653-8.821,19.653-19.655
	C408.574,19.163,399.758,10.344,388.921,10.344z M393.316,31.758c0.48,0,0.885,0.235,1.236,0.717
	c0.35,0.476,0.525,1.062,0.525,1.756c0,0.7-0.176,1.287-0.525,1.76c-0.352,0.475-0.766,0.719-1.236,0.719
	c-0.508,0-0.941-0.241-1.301-0.719c-0.338-0.473-0.521-1.065-0.521-1.76s0.176-1.28,0.521-1.756
	C392.375,31.993,392.812,31.758,393.316,31.758z M399.523,25.332c1.352,1.463,2.033,3.244,2.033,5.327
	c0,1.358-0.158,2.568-0.467,3.655c-0.314,1.08-0.705,1.962-1.178,2.639c-0.482,0.672-1.059,1.274-1.76,1.784
	c-0.697,0.516-1.35,0.882-1.926,1.12c-0.584,0.24-1.254,0.423-2.01,0.546c-0.746,0.136-1.314,0.204-1.703,0.232
	c-0.381,0.009-0.791,0.018-1.238,0.018c-0.096,0-0.43,0.02-0.988,0.031c-0.536,0.022-1.002,0.031-1.369,0.031
	c-0.361,0-0.83-0.009-1.371-0.031c-0.552-0.012-0.886-0.031-0.984-0.031c-0.447,0-0.86-0.003-1.233-0.018
	c-0.396-0.028-0.961-0.097-1.705-0.232c-0.765-0.12-1.425-0.3-2.015-0.546c-0.578-0.235-1.223-0.607-1.917-1.12
	c-0.7-0.516-1.284-1.112-1.763-1.784c-0.472-0.677-0.867-1.565-1.182-2.639c-0.303-1.087-0.467-2.297-0.467-3.655
	c0-2.083,0.68-3.864,2.035-5.327c-0.143-0.077-0.154-0.803-0.019-2.2c0.117-1.389,0.416-2.673,0.895-3.843
	c1.688,0.173,3.772,1.133,6.263,2.857c0.843-0.222,1.99-0.333,3.46-0.333c1.54,0,2.694,0.111,3.466,0.333
	c1.133-0.769,2.219-1.397,3.26-1.87c1.049-0.476,1.805-0.753,2.287-0.827l0.709-0.16c0.48,1.17,0.781,2.457,0.898,3.843
	C399.674,24.529,399.668,25.255,399.523,25.332L399.523,25.332z M388.982,39.45c3.033,0,5.326-0.368,6.883-1.096
	c1.553-0.729,2.35-2.238,2.35-4.51c0-1.315-0.502-2.423-1.488-3.296c-0.51-0.482-1.111-0.766-1.797-0.877
	c-0.666-0.11-1.703-0.11-3.098,0c-1.393,0.111-2.34,0.16-2.853,0.16c-0.701,0-1.454-0.036-2.393-0.11
	c-0.938-0.068-1.672-0.117-2.194-0.136c-0.539-0.019-1.113,0.049-1.737,0.19c-0.623,0.148-1.132,0.401-1.54,0.766
	c-0.941,0.84-1.423,1.941-1.423,3.297c0,2.271,0.769,3.783,2.303,4.507c1.536,0.733,3.824,1.099,6.864,1.099L388.982,39.45z
	 M384.582,31.758c0.478,0,0.886,0.235,1.237,0.717c0.349,0.476,0.524,1.062,0.524,1.756c0,0.7-0.173,1.287-0.524,1.76
	c-0.354,0.475-0.763,0.719-1.237,0.719c-0.513,0-0.945-0.241-1.297-0.719c-0.349-0.473-0.528-1.065-0.528-1.76
	s0.18-1.28,0.528-1.756C383.637,31.993,384.069,31.758,384.582,31.758z"/>
<path opacity="0.92" fill="#FFFFFF" d="M219,5.012v54.824h54.812V5.012H219z M248.543,51.02c-0.809,1.646-2.352,2.725-4.135,3.25
	c-2.749,0.623-5.372,0.264-7.329-0.908c-1.309-0.804-2.329-2.038-3.019-3.461c1.393-0.848,2.777-1.698,4.167-2.552
	c0.04,0.016,0.147,0.217,0.292,0.468c0.532,0.891,0.988,1.523,1.889,1.962c0.89,0.307,2.829,0.495,3.584-1.062
	c0.458-0.788,0.312-3.323,0.312-6.134c0-4.436,0.019-9.143,0.019-13.198h5.13c0,4.056,0.022,9.353,0,14.058
	C249.46,46.316,249.713,48.872,248.543,51.02L248.543,51.02z M269.814,49.678c-1.782,6.092-11.72,6.246-15.687,2.222
	c-0.842-0.946-1.367-1.476-1.869-2.573c2.115-1.212,2.115-1.219,4.166-2.412c1.11,1.714,2.151,2.648,4.003,3.038
	c2.514,0.305,5.047-0.562,4.482-3.233c-0.583-2.188-5.156-2.721-8.267-5.052c-3.156-2.123-3.896-7.272-1.297-10.223
	c0.865-1.086,2.336-1.898,3.884-2.292c0.533-0.066,1.074-0.138,1.615-0.208c3.096-0.062,5.04,0.759,6.459,2.342
	c0.396,0.407,0.715,0.836,1.324,1.774c-1.652,1.056-1.647,1.043-4.014,2.579c-0.507-1.091-1.342-1.773-2.227-2.071
	c-1.376-0.414-3.113,0.04-3.471,1.491c-0.127,0.452-0.096,0.865,0.102,1.604c0.56,1.274,2.424,1.823,4.104,2.593
	c4.833,1.96,6.46,4.109,6.859,6.609C270.371,48.02,269.886,49.678,269.814,49.678L269.814,49.678z"/>
<g>
	<polygon fill="#FFFFFF" points="-47.167,0.305 -47.161,0.305 -47.167,0.248 	"/>
	<path opacity="0.92" fill="#FFFFFF" d="M-47.161,1l3.879,43.159l17.408,4.653l17.458-4.544L-4.532,1H-47.161z M-39,10h12.348h2.966
		h11.188l-0.123,0.987l-0.244,3.259L-12.973,16h-20.426l0.35,4.767l19.584-0.097l-1.462,16.088l-10.946,2.825l-10.935-3.113
		L-37.557,28h5.356l0.381,4.235l5.948,1.595l5.951-1.259L-19.299,26h-18.493l-1.327-16.271"/>
</g>
<path opacity="0.92" fill="#FFFFFF" d="M22.438,32.589 M1.093-1.123l3.882,43.572l17.406,4.992l17.459-5.101l3.887-43.464H1.093z
	 M16.064,18.767h13.411l0.485-5.424H9.542L9.436,12.19L9.192,9.42L9.063,7.918h26.733l-0.128,1.809h-0.003l-1.317,14.501l0,0
	l-0.9,10.021l-0.085,0.868L22.415,38.12l-10.928-3.408l-0.751-8.708h5.355l0.412,5.132l5.941,2.094h-0.005h0.005l5.936-1.879
	l0.62-7.156H16.542L16.064,18.767z"/>
<g>
	<path opacity="0.92" fill="#FFFFFF" d="M946.281,23.762v-0.394c0.005,0,0.005,0,0.011,0c0.008,0,0.008,0,0.008,0v0.394
		c1.353-0.017,2.882-1.688,2.882-1.688c-1.054,0.637-1.992,0.956-2.89,0.975c-0.897-0.019-1.838-0.387-2.888-1.027
		C943.404,22.021,944.934,23.745,946.281,23.762z M942.897,48.726h-0.686c-0.704,0-1.533,0-2.023,0h-0.411
		c-0.577,0-0.865,0.094-1.007,0.236c-0.193,0.202-0.227,0.443-0.091,0.794c0.364,0.938,1.204,1.691,1.451,1.906
		c0.325,0.273,0.791,0.437,1.243,0.437c0.474,0,0.886-0.178,1.172-0.482c0.792-0.845,1.262-1.763,1.37-2.049
		c0.072-0.159,0.145-0.391-0.086-0.631C943.651,48.747,943.332,48.726,942.897,48.726z M932.451,24.328
		c-0.119,1.06,0.556,2.026,0.556,2.026c0.072-0.787,0.234-1.354,0.424-1.751c0.052,1.09,0.338,2.485,1.356,3.61
		c0.729,0.804,3.763,2.473,5.803,0.645c0.107,0.258,0.219,0.563,0.317,0.898c0.305,1.087-0.284,2.674-0.284,2.674
		s1.593-1.81,1.472-3.442c1.143-0.052,2.267-0.891,2.233-2.067c0,0-1.994,1.104-3.761-0.928c-1.025-1.182-4.32-4.447-8.796-3.36
		c0.459,0.098,0.937,0.254,1.431,0.439c0,0.003-0.006,0.003-0.013,0.003C932.762,23.258,932.517,23.804,932.451,24.328
		L932.451,24.328z M935.446,24.137c2.064,1.156,4.736,2.719,4.736,3.915l0,0c0,0,0,0,0,0.007c0,0.353-2.283,1.104-4-0.176
		C935.075,27.063,935.127,25.099,935.446,24.137L935.446,24.137z M952.801,48.726h-0.412c-0.489,0-1.319,0-2.025,0h-0.679
		c-0.437,0-0.752,0.021-0.935,0.211c-0.229,0.24-0.154,0.508-0.093,0.667c0.113,0.286,0.585,1.181,1.375,2.032
		c0.29,0.3,0.704,0.463,1.173,0.463c0.453,0,0.916-0.169,1.241-0.449c0.249-0.215,1.087-0.982,1.451-1.926
		c0.136-0.352,0.104-0.56-0.095-0.762C953.667,48.822,953.383,48.726,952.801,48.726z M950.48,29.221
		c-0.117,1.948,1.479,3.321,1.479,3.321s-0.585-1.644-0.28-2.728c0.097-0.334,0.208-0.663,0.312-0.923
		c2.037,1.818,5.08,0.143,5.805-0.664c1.021-1.122,1.307-2.527,1.354-3.616c0.192,0.396,0.358,0.956,0.423,1.743
		c0,0,0.675-0.967,0.558-2.026c-0.064-0.524-0.305-1.07-0.732-1.253c0,0-0.011,0-0.015-0.003c0.494-0.186,0.974-0.342,1.433-0.439
		c-4.471-1.087-7.769,2.179-8.805,3.36c-1.764,2.029-3.752,1.04-3.752,1.04c-0.033,1.175,1.087,2.188,2.229,2.188H950.48z
		 M951.887,28.052L951.887,28.052c0-1.193,2.927-2.759,4.996-3.915c0.312,0.962,0.24,2.927-0.856,3.746
		c-1.723,1.279-2.19,0.528-4.14,0.176V28.052z M963.591,37.872c0,1.891-1.71,3.581-2.933,4.63c-0.319-2.407-0.561-5.875-0.561-6.604
		c0-1.562,0.931-2.596,1.217-2.76c0.268-0.158,0.525-0.314,0.838-0.48c1.908-1.021,4.257-2.29,4.257-4.633
		c0-1.71-0.996-2.452-1.641-2.943c-0.091-0.062-0.169-0.12-0.241-0.179c-0.218-0.183-0.395-0.319-0.455-0.455
		c-0.469-1.041-0.38-3.627-0.183-3.988c0.06-0.059,1.771-2.209,1.243-4.139c-0.214-0.79-0.727-1.408-1.49-1.804
		c-0.562-0.289-1.256-0.446-2.068-0.473c-0.013-0.211-0.052-0.416-0.098-0.624c-0.055-0.273-0.121-0.557-0.094-0.849
		c0.043-0.492,0.078-0.961,0.224-1.195c0.896-1.403,3.053-1.859,3.077-1.867l1.295-0.25l-0.852-1.004
		c-0.021-0.02-1.832-1.849-4.905-1.849c-0.836,0-1.698,0.137-2.549,0.41c-2.564,0.826-4.536,3.227-5.222,4.157
		c-0.33-0.107-0.676-0.195-1.014-0.283c-0.439-1.672,0.947-4.075,0.947-4.075s-1.433-0.313-3.559,1.616
		c-0.282-0.689-0.858-2.173-0.191-3.939c-3.117,1.103-3.903,2.778-4.138,4.308c-0.807-0.58-0.717-2.446-0.758-2.926
		c-0.796,0.099-3.088,2.32-2.98,5.118c-0.212,0.052-0.42,0.11-0.628,0.182c-0.684-0.931-2.653-3.331-5.218-4.164
		c-0.851-0.27-1.711-0.414-2.553-0.414c-3.065,0-4.883,1.836-4.896,1.855l-0.862,0.999l1.297,0.256
		c0.027,0.003,2.187,0.459,3.077,1.87c0.146,0.229,0.189,0.697,0.229,1.185c0.027,0.294-0.039,0.583-0.096,0.853
		c-0.046,0.208-0.091,0.416-0.1,0.625c-0.812,0.028-1.509,0.189-2.068,0.479c-0.762,0.393-1.28,1.011-1.488,1.798
		c-0.531,1.926,1.182,4.075,1.241,4.145c0.202,0.358,0.286,2.947-0.177,3.985c-0.064,0.139-0.235,0.275-0.457,0.458
		c-0.072,0.059-0.146,0.111-0.225,0.173c-0.658,0.491-1.641,1.236-1.641,2.946c0,2.34,2.367,3.607,4.273,4.627
		c0.321,0.172,0.613,0.328,0.887,0.483c0.284,0.167,1.291,1.204,1.291,2.76c0,0.725-0.068,4.195-0.394,6.609
		c-1.223-1.055-2.356-2.739-2.602-4.633c0,0-3.098,2.381-2.187,7.496c0.826,4.638,4.605,6.258,9,6.595
		c1.474,3.439,3.802,6.507,9.816,6.52l0,0c0.005,0,0.005,0,0.011,0c0.008,0,0.008,0,0.008,0l0,0c6.018-0.013,8.346-3.087,9.819-6.52
		c4.395-0.337,8.503-1.957,9.324-6.595c0.912-5.115-1.853-7.496-1.853-7.496V37.872z M958.328,8.281
		c0.599-0.189,1.225-0.286,1.866-0.286c1.165,0,2.108,0.309,2.612,0.52c-0.325,0.15-0.675,0.336-1.025,0.566
		c-0.253-0.046-0.584-0.078-0.973-0.078c-1.114,0-2.162,0.326-3.045,0.946c-1.303,0.908-1.904,1.79-2.182,2.358
		c-0.235-0.13-0.482-0.264-0.748-0.396c-0.166-0.075-0.331-0.156-0.504-0.228C954.984,10.728,956.438,8.886,958.328,8.281
		L958.328,8.281z M960.543,10.207c-0.083,0.11-0.167,0.228-0.237,0.345c-0.352,0.553-0.407,1.236-0.465,1.887
		c-0.056,0.683-0.111,1.323-0.459,1.79c-0.442,0.09-0.858,0.184-1.217,0.284c-0.241-0.324-0.597-0.737-1.113-1.176
		c0.154-0.512,0.582-1.706,1.437-2.385c0.574-0.462,1.272-0.712,2.059-0.745H960.543z M930.798,9.081
		c-0.348-0.23-0.7-0.413-1.022-0.566c0.504-0.211,1.444-0.52,2.613-0.52c0.641,0,1.269,0.091,1.869,0.286
		c1.882,0.604,3.344,2.446,3.994,3.402c-0.169,0.071-0.338,0.152-0.5,0.228c-0.268,0.137-0.52,0.267-0.752,0.396
		c-0.277-0.568-0.883-1.45-2.184-2.358c-0.879-0.62-1.934-0.946-3.045-0.946c-0.385,0-0.716,0.032-0.97,0.078H930.798z
		 M935.528,13.337c-0.517,0.438-0.868,0.852-1.109,1.181c-0.364-0.102-0.776-0.199-1.217-0.289l-1.167-4.016
		c0.784,0.03,1.48,0.28,2.059,0.742L935.528,13.337L935.528,13.337z M932.121,31.8c-0.285-0.156-0.59-0.326-0.889-0.488
		c-1.572-0.853-3.201-1.73-3.201-3.228c0-1.177,0.459-1.541,0.943-1.932l0.292-0.338c-0.097,0.812-0.208,1.509-0.292,1.686
		c0,0,1.28-1.598,1.665-4.694c0.15-1.221-0.117-3.633-0.544-4.558c0.017,0.52,0.002,1.031-0.037,1.516
		c-0.037-0.082-0.084-0.163-0.129-0.221c-0.344-0.426-1.258-1.857-0.994-2.817c0.101-0.371,0.331-0.635,0.708-0.826
		c0.397-0.212,0.93-0.307,1.595-0.307c1.301,0,2.742,0.395,3.481,0.626c2.657,0.839,5.86,3.271,6.778,3.994
		c0.028,0.02,0.045,0.032,0.045,0.032l0.589,0.409l-0.368-0.607c-0.019-0.042-2.021-3.327-5.626-4.929
		c0.214-0.303,0.78-0.858,2.282-1.587c2.271-1.112,4.918-1.672,7.868-1.672c2.951,0,5.599,0.56,7.871,1.672
		c1.501,0.729,2.066,1.287,2.283,1.591c-3.604,1.604-5.605,4.89-5.626,4.925l-0.368,0.607l0.591-0.405
		c0.004-0.004,0.016-0.017,0.043-0.03c0.92-0.726,4.123-3.155,6.78-3.994c0.743-0.234,2.183-0.632,3.479-0.632
		c0.669,0,1.204,0.098,1.6,0.307c0.375,0.191,0.611,0.461,0.708,0.83c0.26,0.959-0.648,2.388-0.992,2.813
		c-0.047,0.064-0.092,0.142-0.138,0.224c-0.033-0.487-0.045-0.999-0.033-1.519c-0.424,0.925-0.685,3.334-0.541,4.558
		c0.385,3.097,1.665,4.694,1.665,4.694c-0.084-0.17-0.183-0.817-0.284-1.581c0.076,0.064,0.155,0.136,0.233,0.188l0.051,0.045
		c0.486,0.391,0.939,0.755,0.939,1.932c0,1.5-1.625,2.375-3.199,3.228c-0.301,0.162-0.607,0.332-0.89,0.488
		c-0.92,0.529-1.903,1.77-2.015,3.623c-0.097,1.543,0.09,5.275,0.355,8.028c-1.311,0.508-2.819,0.671-4.192,0.716
		c-0.223-0.442-0.425-0.904-0.587-1.393c-0.072-0.208-2.075-5.406-2.791-6.584c0.572,4.125,1.854,7.787,2.484,9.479
		c-0.366-0.049-0.774-0.461-1.235-0.461c0,0-4.398-0.388-6.18-0.388c0,0-0.008,0-0.012,0h-0.009c-1.776,0-6.175,0.388-6.175,0.388
		c-0.466,0-0.871,0.22-1.241,0.269c0.638-1.688,1.912-5.259,2.49-9.384c-0.725,1.184-2.726,6.428-2.797,6.636
		c-0.169,0.484-0.365,0.977-0.583,1.408c-1.369-0.035-2.878-0.185-4.199-0.699c0.274-2.752,0.457-6.473,0.366-8.021
		c-0.111-1.854-1.101-3.091-2.02-3.623V31.8z M936.385,46.73c-0.052,0.06-0.105,0.099-0.154,0.156
		c-0.764,0.826-0.908,1.966-0.431,3.378c-2.39-0.039-4.88-1.062-6.148-3.149c-1.288-2.118-0.929-5.723-0.403-6.253
		c1.161,3.649,5.002,4.688,7.878,4.808C936.84,46.119,936.578,46.476,936.385,46.73z M955.275,50.673
		c-0.7,1.951-2.578,6.587-8.987,6.601c-6.41-0.014-8.283-4.977-8.983-6.981c-0.387-1.115-0.356-2.092,0.095-2.606
		c0.305-0.338,1.007-0.917,2.602-0.917h1.676c1.233,0,2.781,0,4.615,0c1.836,0,3.384,0,4.613,0h1.675c1.598,0,2.3,0.769,2.606,1.113
		c0.44,0.516,0.474,0.844,0.091,2.791H955.275z M962.935,47.115c-1.269,2.088-3.767,3.11-6.155,3.149
		c0.479-1.412,0.332-2.552-0.434-3.378c-0.048-0.058-0.1-0.097-0.15-0.156c-0.195-0.255-0.453-0.617-0.737-1.055
		c2.876-0.126,6.719-1.164,7.874-4.813C963.856,41.393,964.217,45,962.935,47.115L962.935,47.115z"/>
</g>
<path opacity="0.92" fill="#FFFFFF" d="M553.051,34.197c-2.635,0.014-4.916,0.643-6.83,1.588c-0.709-1.395-1.42-2.619-1.537-3.531
	c-0.133-1.062-0.297-1.717-0.133-2.977c0.164-1.27,0.902-3.066,0.902-3.213c-0.016-0.133-0.164-0.781-1.684-0.795
	c-1.514-0.016-2.82,0.293-2.975,0.693c-0.143,0.398-0.439,1.309-0.629,2.25c-0.266,1.387-3.035,6.291-4.613,8.867
	c-0.512-1-0.955-1.881-1.043-2.592c-0.135-1.055-0.295-1.709-0.135-2.975c0.164-1.266,0.9-3.062,0.9-3.211
	c-0.018-0.133-0.16-0.783-1.678-0.797c-1.52-0.012-2.834,0.297-2.977,0.695c-0.146,0.395-0.309,1.336-0.635,2.25
	c-0.309,0.916-3.992,9.104-4.945,11.242c-0.486,1.092-0.912,1.959-1.225,2.541c-0.312,0.596-0.016,0.047-0.043,0.105
	c-0.27,0.5-0.414,0.785-0.414,0.785v0.012c-0.203,0.369-0.426,0.725-0.527,0.725c-0.074,0-0.223-0.99,0.027-2.342
	c0.547-2.846,1.867-7.277,1.855-7.439c0-0.072,0.25-0.857-0.852-1.252c-1.078-0.395-1.457,0.266-1.551,0.266
	c-0.086,0-0.16,0.234-0.16,0.234s1.191-4.99-2.283-4.99c-2.18,0-5.18,2.367-6.674,4.533c-0.938,0.516-2.945,1.605-5.061,2.771
	c-0.809,0.443-1.652,0.91-2.445,1.34l-0.166-0.18c-4.211-4.486-12.002-7.672-11.678-13.709c0.115-2.195,0.887-7.982,14.961-14.994
	c11.533-5.742,20.766-4.168,22.371-0.662c2.287,5.008-4.932,14.316-16.92,15.656c-4.564,0.512-6.963-1.254-7.572-1.914
	c-0.629-0.695-0.719-0.723-0.953-0.592c-0.387,0.205-0.148,0.826,0,1.195c0.352,0.928,1.826,2.578,4.33,3.4
	c2.195,0.721,7.553,1.119,14.035-1.383c7.258-2.816,12.932-10.619,11.266-17.145c-1.695-6.637-12.711-8.822-23.125-5.125
	c-6.197,2.209-12.914,5.654-17.746,10.18c-5.742,5.357-6.654,10.043-6.271,11.984c1.338,6.936,10.9,11.459,14.727,14.805
	c-0.189,0.1-0.365,0.205-0.529,0.291c-1.92,0.945-9.205,4.76-11.031,8.793c-2.062,4.566,0.326,7.852,1.914,8.293
	c4.918,1.371,9.957-1.088,12.678-5.141c2.711-4.051,2.391-9.309,1.137-11.711l-0.043-0.086l1.506-0.883
	c0.967-0.574,1.926-1.102,2.766-1.561c-0.473,1.279-0.809,2.795-0.984,5.004c-0.211,2.6,0.85,5.953,2.25,7.279
	c0.617,0.57,1.355,0.588,1.812,0.588c1.619,0,2.354-1.342,3.162-2.947c1.006-1.955,1.887-4.225,1.887-4.225
	s-1.102,6.143,1.916,6.143c1.105,0,2.209-1.43,2.711-2.168v0.016c0,0,0.031-0.043,0.088-0.146c0.121-0.174,0.176-0.277,0.176-0.277
	V47.73c0.443-0.768,1.43-2.52,2.902-5.422c1.9-3.74,3.723-8.422,3.723-8.422s0.18,1.15,0.729,3.031
	c0.32,1.119,1.027,2.342,1.57,3.537c-0.441,0.619-0.707,0.973-0.707,0.973l0.014,0.014c-0.354,0.473-0.748,0.973-1.162,1.473
	c-1.502,1.797-3.303,3.846-3.535,4.432c-0.279,0.693-0.217,1.209,0.322,1.617c0.402,0.299,1.109,0.359,1.861,0.299
	c1.352-0.088,2.297-0.428,2.766-0.631c0.742-0.268,1.574-0.666,2.387-1.254c1.475-1.092,2.373-2.639,2.283-4.699
	c-0.047-1.133-0.41-2.252-0.873-3.312c0.135-0.191,0.268-0.383,0.4-0.59c2.328-3.398,4.123-7.146,4.123-7.146s0.18,1.15,0.721,3.039
	c0.281,0.955,0.842,2,1.342,3.029c-2.176,1.785-3.549,3.848-4.018,5.205c-0.871,2.504-0.195,3.637,1.092,3.9
	c0.574,0.117,1.395-0.146,2.012-0.412c0.766-0.25,1.699-0.68,2.551-1.312c1.473-1.09,2.889-2.609,2.814-4.652
	c-0.049-0.943-0.297-1.873-0.637-2.76c1.859-0.762,4.26-1.203,7.311-0.838c6.549,0.771,7.846,4.865,7.596,6.57
	c-0.252,1.709-1.621,2.652-2.078,2.949c-0.457,0.277-0.605,0.381-0.559,0.586c0.059,0.312,0.266,0.295,0.664,0.24
	c0.543-0.094,3.443-1.402,3.562-4.553C563.715,38.568,559.869,34.148,553.051,34.197L553.051,34.197z M502.504,51.236
	c-2.164,2.369-5.209,3.271-6.506,2.502c-1.402-0.809-0.859-4.303,1.809-6.818c1.623-1.531,3.729-2.943,5.111-3.818
	c0.309-0.188,0.783-0.465,1.342-0.807c0.084-0.061,0.148-0.088,0.148-0.088c0.102-0.059,0.219-0.135,0.336-0.207
	C505.732,45.594,504.789,48.746,502.504,51.236L502.504,51.236z M518.338,40.467c-0.754,1.842-2.342,6.57-3.299,6.307
	c-0.824-0.223-1.324-3.801-0.158-7.336c0.586-1.783,1.84-3.902,2.574-4.73c1.191-1.324,2.488-1.768,2.812-1.219
	C520.65,34.197,518.811,39.32,518.338,40.467z M531.402,46.715c-0.324,0.162-0.621,0.279-0.754,0.188
	c-0.102-0.057,0.133-0.277,0.133-0.277s1.637-1.754,2.285-2.562c0.371-0.469,0.809-1.016,1.281-1.637v0.18
	C534.348,44.725,532.312,46.141,531.402,46.715z M541.475,44.414c-0.234-0.18-0.205-0.719,0.59-2.43
	c0.311-0.676,1.014-1.811,2.24-2.885c0.145,0.443,0.238,0.871,0.219,1.266C544.512,43.016,542.621,44.004,541.475,44.414z"/>
<g opacity="0.92">
	<polygon fill="#FFFFFF" points="807.447,31.54 812.295,31.54 812.295,31.54 812.295,31.54 817.148,31.54 812.295,19.873 	"/>
	<path fill="#FFFFFF" d="M812.295,1.478L812.295,1.478L812.295,1.478l-26.553,9.47l4.057,35.105l22.496,12.47l0,0l0,0l22.504-12.47
		l4.051-35.105L812.295,1.478z M828.871,45.001h-6.193l0,0l-3.332-8.324h-7.051l0,0l0,0h-7.043l-3.34,8.324l0,0h-6.186l0,0
		L812.295,7.78l0,0l0,0l0,0l0,0L828.871,45.001L828.871,45.001z"/>
</g>
<g>
	<path opacity="0.92" fill="none" stroke="#FFFFFF" stroke-width="4" stroke-miterlimit="10" d="M633,22V6.095
		C633,4.113,634.893,3,636.873,3h66.965C705.82,3,707,4.113,707,6.095V11"/>
	<path opacity="0.92" fill="#FFFFFF" d="M643,24.905c0-1.321-1.1-1.905-2.422-1.905h-14.217c-1.32,0-2.361,0.584-2.361,1.905v30.217
		c0,1.321,1.041,2.878,2.361,2.878h14.217C641.9,58,643,56.443,643,55.122V24.905z M633.287,56.617c-0.826,0-1.496-0.67-1.496-1.495
		s0.67-1.495,1.496-1.495c0.824,0,1.494,0.67,1.494,1.495S634.111,56.617,633.287,56.617z M642,53h-17V26h17V53z"/>
	<path opacity="0.92" fill="#FFFFFF" d="M718.736,13h-23.02c-2.119,0-3.717-0.103-3.717,1.651v39.688
		c0,1.753,1.598,3.661,3.717,3.661h23.02c2.117,0,4.264-1.908,4.264-3.661V14.651C723,12.897,720.854,13,718.736,13z
		 M707.426,56.617c-0.826,0-1.496-0.67-1.496-1.495s0.67-1.495,1.496-1.495c0.824,0,1.494,0.67,1.494,1.495
		S708.25,56.617,707.426,56.617z M721,53h-27V15h27V53z"/>
	<path opacity="0.92" fill="#FFFFFF" d="M644,41v5h47v-5H644z M670.404,44.659c-0.852,0-1.543-0.691-1.543-1.545
		c0-0.853,0.691-1.544,1.543-1.544c0.854,0,1.545,0.691,1.545,1.544C671.949,43.968,671.258,44.659,670.404,44.659z"/>
	<polygon opacity="0.92" fill="#FFFFFF" points="661.281,57 666.004,50 674.707,50 679.43,57 	"/>
</g>
<rect x="-197.333" y="58.305" fill="none" width="43.5" height="9"/>
<text transform="matrix(1 0 0 1 -196.582 66.8242)" fill="#FFFFFF" font-family="'MyriadPro-Regular'" font-size="12">terminal</text>
<rect x="9.109" y="58.182" fill="none" width="25.5" height="9"/>
<text transform="matrix(1 0 0 1 10.0688 66.7012)" fill="#FFFFFF" font-family="'MyriadPro-Regular'" font-size="12">css 3</text>
<rect x="-42.85" y="58.182" fill="none" width="34" height="9"/>
<text transform="matrix(1 0 0 1 -41.9355 66.7012)" fill="#FFFFFF" font-family="'MyriadPro-Regular'" font-size="12">html 5</text>
<rect x="221" y="69.836" fill="none" width="50.812" height="9"/>
<text transform="matrix(1 0 0 1 222.4482 78.3555)" fill="#FFFFFF" font-family="'MyriadPro-Regular'" font-size="12">javascript</text>
<rect x="370.173" y="65.336" fill="none" width="37.5" height="9"/>
<text transform="matrix(1 0 0 1 372.1289 73.8555)" fill="#FFFFFF" font-family="'MyriadPro-Regular'" font-size="12">github</text>
<rect x="931.553" y="68" fill="none" width="29.5" height="9"/>
<text transform="matrix(1 0 0 1 932.3652 76.5195)" fill="#FFFFFF" font-family="'MyriadPro-Regular'" font-size="12">grunt</text>
<rect x="510.672" y="68" fill="none" width="30.344" height="9"/>
<text transform="matrix(1 0 0 1 514.7861 76.5195)" fill="#FFFFFF" font-family="'MyriadPro-Regular'" font-size="12">.scss</text>
<rect x="642.5" y="68" fill="none" width="55" height="9"/>
<text transform="matrix(1 0 0 1 642.9463 76.5195)" fill="#FFFFFF" font-family="'MyriadPro-Regular'" font-size="12">responsive</text>
<rect x="792.798" y="68" fill="none" width="39" height="9"/>
<text transform="matrix(1 0 0 1 793.1465 76.5195)" fill="#FFFFFF" font-family="'MyriadPro-Regular'" font-size="12">angular</text>
</svg>
