<?xml version="1.0" encoding="utf-8"?>
<!-- Generator: Adobe Illustrator 15.0.2, SVG Export Plug-In . SVG Version: 6.00 Build 0)  -->
<!DOCTYPE svg PUBLIC "-//W3C//DTD SVG 1.1//EN" "http://www.w3.org/Graphics/SVG/1.1/DTD/svg11.dtd">
<svg version="1.1" id="Layer_1" xmlns="http://www.w3.org/2000/svg" xmlns:xlink="http://www.w3.org/1999/xlink" x="0px" y="0px"
	 width="100px" height="100px" viewBox="0 0 100 100" enable-background="new 0 0 100 100" xml:space="preserve">
<g>
	<path fill="#FFFFFF" stroke="#FFFFFF" stroke-width="0.75" stroke-miterlimit="10" d="M94.448,1.493c-23.959,0-47.91,0-71.872,0
		c-0.126,0-0.26,0-0.387,0c-1.775,0-3.796,1.705-0.95,1.705c0.393,0,0.792,0,1.171,0c0.316-0.568,0.635-1.137,0.951-1.705
		C13.804,1.689,4.625,7.528,3.913,17.719c-0.729,10.357,9.147,17.06,18.499,17.256c0.316-0.575,0.635-1.144,0.951-1.712
		c-0.386,0-0.775,0-1.172,0c-1.775,0-3.796,1.712-0.95,1.712c12.694,0,25.408,0,38.106,0c5.452,0,10.906,0,16.345,0
		c10.934,0,19.356,10.443,15.004,21.025c-2.147,5.229-7.538,8.913-13.165,9.024c-1.047,0.022-2.092,0-3.13,0
		c-6.19,0-12.387,0-18.58,0c-11.218,0-22.421,0-33.629,0c-1.775,0-3.796,1.712-0.95,1.712c0.393,0,0.792,0,1.171,0
		c0.316-0.566,0.635-1.137,0.951-1.712c-9.558,0.198-18.738,6.035-19.45,16.239C3.183,91.61,13.063,98.318,22.411,98.507
		c0.316-0.576,0.635-1.143,0.951-1.704c-0.386,0-0.775,0-1.172,0c-1.775,0-3.796,1.704-0.95,1.704c23.966,0,47.917,0,71.869,0
		c0.126,0,0.267,0,0.4,0c1.774,0,3.788-1.704,0.939-1.704c-23.959,0-47.91,0-71.872,0c-0.126,0-0.26,0-0.387,0
		c-1.775,0-3.796,1.704-0.95,1.704c0.393,0,0.792,0,1.171,0c1.775,0,3.804-1.648,0.951-1.704
		C15.26,96.641,8.622,90.326,8.063,82.267c-0.568-8.047,6.372-15.368,14.348-15.53c0.73-0.014,2.085-0.077,2.506-0.828
		c0.396-0.742-1.207-0.884-1.555-0.884c-0.386,0-0.775,0-1.172,0c-1.775,0-3.796,1.712-0.95,1.712c12.694,0,25.408,0,38.106,0
		c5.452,0,10.906,0,16.345,0c9.172,0,18.07-4.596,20.099-14.154c2.408-11.375-8.561-19.319-18.766-19.319c-4.631,0-9.264,0-13.888,0
		c-13.573,0-27.148,0-40.717,0H22.19c-1.775,0-3.796,1.712-0.95,1.712c0.393,0,0.792,0,1.171,0c1.775,0,3.804-1.662,0.951-1.712
		C15.26,33.087,8.622,26.792,8.063,18.729c-0.568-8.05,6.376-15.362,14.348-15.53c0.73-0.014,2.085-0.077,2.506-0.821
		c0.396-0.744-1.207-0.884-1.555-0.884c-0.386,0-0.775,0-1.172,0c-1.775,0-3.796,1.705-0.95,1.705c23.966,0,47.917,0,71.869,0
		c0.126,0,0.267,0,0.4,0C95.283,3.198,97.297,1.493,94.448,1.493z"/>
</g>
</svg>
