<?xml version="1.0" encoding="utf-8"?>
<!-- Generator: Adobe Illustrator 15.0.2, SVG Export Plug-In . SVG Version: 6.00 Build 0)  -->
<!DOCTYPE svg PUBLIC "-//W3C//DTD SVG 1.1//EN" "http://www.w3.org/Graphics/SVG/1.1/DTD/svg11.dtd">
<svg version="1.1" id="Layer_1" xmlns="http://www.w3.org/2000/svg" xmlns:xlink="http://www.w3.org/1999/xlink" x="0px" y="0px"
	 width="100px" height="100px" viewBox="0 0 100 100" enable-background="new 0 0 100 100" xml:space="preserve">
<g>
	<polyline fill="#4D4D4D" points="8.854,16.655 8.524,28.35 8.193,16.655 18.488,11.094 8.524,17.226 	"/>
	<polygon fill="#4D4D4D" points="51.443,39.768 49.837,96.872 48.229,39.768 98.485,12.61 49.838,42.554 1.188,12.612 	"/>
	<polyline fill="#4D4D4D" points="49.508,89.222 59.798,83.661 49.837,89.794 39.875,83.66 50.167,89.222 	"/>
	<polyline fill="#4D4D4D" points="91.149,17.226 81.186,11.094 91.479,16.655 91.149,28.352 90.819,16.655 	"/>
	<path fill="#4D4D4D" d="M60.959,4.743L58.591,9.02l-0.464-0.25c0.188-0.497,0.282-0.806,0.282-0.928
		c0-0.33-0.408-0.689-1.226-1.076c-2.219-1.037-4.571-1.556-7.056-1.556c-2.042,0-3.82,0.379-5.333,1.14
		c-0.729,0.375-1.306,0.859-1.73,1.454c-0.426,0.595-0.638,1.223-0.638,1.884c0,0.552,0.166,1.072,0.497,1.562
		c0.332,0.489,0.768,0.857,1.309,1.099c0.596,0.275,1.3,0.466,2.112,0.57c0.811,0.105,2.133,0.185,3.966,0.24
		c2.539,0.077,4.356,0.196,5.448,0.355c1.093,0.16,1.994,0.439,2.7,0.837c1.877,1.048,2.815,2.645,2.815,4.785
		c0,2.043-0.85,3.716-2.55,5.019c-1.888,1.458-4.488,2.187-7.8,2.187c-1.91,0-3.577-0.194-5.001-0.58
		c-1.425-0.387-3.125-1.098-5.101-2.136c-0.552-0.254-0.877-0.382-0.977-0.382c-0.166,0-0.425,0.199-0.779,0.597l-0.447-0.281
		l2.485-4.157l0.463,0.266c-0.209,0.441-0.314,0.739-0.314,0.895c0,0.352,0.707,0.899,2.12,1.64c1.27,0.661,2.493,1.139,3.669,1.433
		c1.176,0.292,2.454,0.438,3.833,0.438c2.793,0,4.913-0.612,6.36-1.838c0.96-0.816,1.44-1.789,1.44-2.914
		c0-1.479-0.822-2.502-2.468-3.064c-0.529-0.188-1.079-0.307-1.647-0.356c-0.569-0.05-2.184-0.123-4.844-0.223
		c-1.899-0.078-3.387-0.222-4.463-0.432c-1.077-0.209-2.035-0.551-2.874-1.026c-0.784-0.441-1.405-1.06-1.863-1.854
		c-0.458-0.795-0.688-1.662-0.688-2.601c0-1.601,0.596-2.975,1.789-4.123c0.883-0.84,2.104-1.5,3.66-1.979
		c1.557-0.48,3.263-0.722,5.118-0.722c1.512,0,2.917,0.15,4.215,0.452c1.297,0.299,2.763,0.816,4.397,1.55
		c0.364,0.156,0.591,0.234,0.679,0.234c0.199,0,0.469-0.222,0.812-0.667L60.959,4.743z"/>
	<path fill="#4D4D4D" d="M16.064,64.799V45.637c0-0.332-0.077-0.585-0.232-0.762c-0.154-0.177-0.43-0.319-0.828-0.431v-0.529h11.924
		c2.706,0,4.775,0.375,6.211,1.126c1.81,0.938,3.191,2.385,4.14,4.339c0.828,1.711,1.242,3.654,1.242,5.829
		c0,2.573-0.558,4.792-1.673,6.658c-1.004,1.656-2.277,2.847-3.817,3.569c-1.541,0.723-3.574,1.084-6.103,1.084H15.004v-0.529
		c0.398-0.11,0.674-0.254,0.828-0.431C15.987,65.384,16.064,65.13,16.064,64.799z M18.665,64.368h8.165
		c2.396,0,4.174-0.37,5.333-1.11c1.369-0.883,2.374-2.234,3.014-4.058c0.419-1.214,0.63-2.544,0.63-3.991
		c0-2.628-0.668-4.803-2.004-6.525c-0.74-0.949-1.64-1.622-2.7-2.02c-1.06-0.398-2.484-0.597-4.273-0.597h-8.165V64.368z"/>
	<path fill="#4D4D4D" d="M85.02,45.868l-2.451,4.092l-0.447-0.265c0.1-0.331,0.149-0.591,0.149-0.78c0-0.451-0.706-1.021-2.12-1.705
		c-1.943-0.949-4.062-1.424-6.359-1.424c-3.092,0-5.599,0.854-7.52,2.565c-1.954,1.742-2.931,3.998-2.931,6.767
		c0,2.758,1.016,5.046,3.048,6.866c1.965,1.777,4.388,2.665,7.27,2.665c2.815,0,5.3-0.819,7.452-2.459
		c0.972-0.739,1.458-1.265,1.458-1.573c0-0.154-0.094-0.409-0.281-0.763l0.398-0.313l2.947,3.576l-0.414,0.333
		c-0.309-0.277-0.563-0.415-0.762-0.415c-0.121,0-0.332,0.116-0.629,0.348c-1.015,0.764-1.858,1.338-2.525,1.718
		c-0.668,0.383-1.4,0.706-2.194,0.972c-1.646,0.563-3.457,0.846-5.433,0.846c-3.809,0-6.906-1.059-9.291-3.179
		c-2.506-2.219-3.759-5.052-3.759-8.497c0-2.716,0.784-5.067,2.352-7.055c2.451-3.114,6.122-4.67,11.014-4.67
		c3.235,0,6.365,0.855,9.39,2.566c0.199,0.111,0.336,0.166,0.414,0.166c0.144,0,0.402-0.21,0.778-0.63L85.02,45.868z"/>
	<polyline fill="#4D4D4D" points="11.761,18.109 11.432,29.804 11.101,18.109 21.396,12.548 11.432,18.68 	"/>
	<polyline fill="#4D4D4D" points="88.241,18.68 78.278,12.548 88.572,18.109 88.241,29.805 87.912,18.109 	"/>
	<polyline fill="#4D4D4D" points="49.508,86.314 59.798,80.753 49.837,86.887 39.875,80.752 50.167,86.314 	"/>
</g>
</svg>
